<?xml version="1.0" encoding="UTF-8"?>
<svg xmlns="http://www.w3.org/2000/svg" version="1.1" viewBox="0 0 24 24">
  <defs>
    <style>
      .cls-1 {
        fill: #333;
      }
    </style>
  </defs>
  <!-- Generator: Adobe Illustrator 28.7.5, SVG Export Plug-In . SVG Version: 1.2.0 Build 176)  -->
  <g>
    <g id="Layer_1">
      <path class="cls-1" d="M21.7,23.5l-8-8c-.6.5-1.4.9-2.2,1.2s-1.7.4-2.7.4c-2.3,0-4.3-.8-5.9-2.4S.5,11.1.5,8.8s.8-4.3,2.4-5.9c1.6-1.6,3.6-2.4,5.9-2.4s4.3.8,5.9,2.4c1.6,1.6,2.4,3.6,2.4,5.9s-.1,1.8-.4,2.7-.7,1.6-1.2,2.2l8,8-1.8,1.8ZM8.8,14.6c1.6,0,3-.6,4.1-1.7s1.7-2.5,1.7-4.1-.6-3-1.7-4.1-2.5-1.7-4.1-1.7-3,.6-4.1,1.7-1.7,2.5-1.7,4.1.6,3,1.7,4.1,2.5,1.7,4.1,1.7Z"/>
    </g>
  </g>
</svg>