<?xml version="1.0" encoding="UTF-8"?>
<svg id="Layer_1" xmlns="http://www.w3.org/2000/svg" version="1.1" viewBox="0 0 24 24">
  <!-- Generator: Adobe Illustrator 29.3.0, SVG Export Plug-In . SVG Version: 2.1.0 Build 146)  -->
  <defs>
    <style>
      .st0 {
        fill: #999;
      }
    </style>
  </defs>
  <path class="st0" d="M21.7,23.5l-8-8c-.6.5-1.4.9-2.2,1.2s-1.7.4-2.7.4c-2.3,0-4.3-.8-5.9-2.4S.5,11.1.5,8.8s.8-4.3,2.4-5.9S6.5.5,8.8.5s4.3.8,5.9,2.4,2.4,3.6,2.4,5.9-.1,1.8-.4,2.7-.7,1.6-1.2,2.2l8,8-1.8,1.8ZM8.8,14.6c1.6,0,3-.6,4.1-1.7s1.7-2.5,1.7-4.1-.6-3-1.7-4.1-2.5-1.7-4.1-1.7-3,.6-4.1,1.7-1.7,2.5-1.7,4.1.6,3,1.7,4.1,2.5,1.7,4.1,1.7Z"/>
</svg>