<?xml version="1.0" encoding="UTF-8"?>
<svg xmlns="http://www.w3.org/2000/svg" version="1.1" viewBox="0 0 24 24">
  <defs>
    <style>
      .cls-1 {
        fill: #004282;
      }
    </style>
  </defs>
  <!-- Generator: Adobe Illustrator 28.7.4, SVG Export Plug-In . SVG Version: 1.2.0 Build 166)  -->
  <g>
    <g id="Layer_1">
      <path class="cls-1" d="M15.9,17.6l1.7-1.7-4.4-4.4v-5.5h-2.4v6.4l5.1,5.1ZM12,23.9c-1.7,0-3.2-.3-4.7-.9s-2.7-1.5-3.8-2.6-1.9-2.3-2.6-3.8S0,13.7,0,12s.3-3.2.9-4.7,1.5-2.7,2.6-3.8,2.3-1.9,3.8-2.6S10.3,0,12,0s3.2.3,4.7.9,2.7,1.5,3.8,2.6,1.9,2.3,2.6,3.8.9,3,.9,4.7-.3,3.2-.9,4.7-1.5,2.7-2.6,3.8-2.3,1.9-3.8,2.6-3,.9-4.7.9ZM12,21.5c2.6,0,4.9-.9,6.8-2.8,1.9-1.9,2.8-4.1,2.8-6.8s-.9-4.9-2.8-6.8-4.1-2.8-6.8-2.8-4.9.9-6.8,2.8c-1.9,1.9-2.8,4.1-2.8,6.8s.9,4.9,2.8,6.8c1.9,1.9,4.1,2.8,6.8,2.8Z"/>
    </g>
  </g>
</svg>