<?xml version="1.0" encoding="UTF-8"?>
<svg xmlns="http://www.w3.org/2000/svg" version="1.1" viewBox="0 0 100 100">
  <defs>
    <style>
      .cls-1 {
        fill: #fff;
      }
    </style>
  </defs>
  <!-- Generator: Adobe Illustrator 28.7.4, SVG Export Plug-In . SVG Version: 1.2.0 Build 166)  -->
  <g>
    <g id="Layer_1">
      <g>
        <path class="cls-1" d="M24.9,52c-.3-.3-.7-.5-1.2-.6-.5-.1-1-.2-1.5-.2h-2.1v7.3h1.9c1.2,0,2.1-.3,2.9-.8.7-.5,1.1-1.5,1.1-2.9s0-1.3-.3-1.8c-.2-.5-.5-.8-.8-1.1Z"/>
        <path class="cls-1" d="M24.5,47.1c.6-.5.9-1.3.9-2.5s-.3-2-.9-2.5-1.5-.7-2.7-.7h-1.8v6.4h1.4c1.4,0,2.4-.2,3-.7Z"/>
        <path class="cls-1" d="M60.7,43.1c-.2-.7-.6-1.3-1-1.6-.4-.3-1-.5-1.8-.5s-1.3.2-1.8.5c-.4.3-.8.9-1,1.6-.2.7-.4,1.7-.5,2.8,0,1.1-.1,2.5-.1,4.2s0,3,.1,4.2c0,1.1.2,2.1.5,2.8.2.7.6,1.2,1,1.6.4.3,1,.5,1.8.5s1.3-.2,1.8-.5.8-.9,1-1.6c.2-.7.4-1.6.5-2.8,0-1.1.1-2.5.1-4.2s0-3-.1-4.2c0-1.1-.2-2.1-.5-2.8Z"/>
        <path class="cls-1" d="M50,0C22.4,0,0,22.4,0,50s22.4,50,50,50,50-22.4,50-50S77.6,0,50,0ZM30.7,57.8c-.3.9-.7,1.6-1.3,2.3s-1.4,1.2-2.4,1.6c-1,.4-2.2.6-3.6.6h-8.3v-24.3h8.2c1,0,1.9.1,2.8.3s1.6.5,2.2,1c.6.5,1.1,1.1,1.4,1.9.3.8.5,1.8.5,2.9s-.3,2.4-.9,3.4c-.6.9-1.5,1.6-2.8,1.9h0c1.4.3,2.4.8,3.2,1.8.8,1,1.2,2.3,1.2,3.9s-.1,1.9-.4,2.7ZM47.8,62.2h-13.6v-24.3h4.9v20.3h8.7v4ZM65.9,55.2c-.2,1.5-.5,2.9-1.1,4-.6,1.1-1.4,2-2.5,2.6-1.1.6-2.6.9-4.4.9s-3.3-.3-4.4-.9c-1.1-.6-1.9-1.4-2.5-2.6-.6-1.1-1-2.4-1.1-4s-.3-3.2-.3-5.1,0-3.5.3-5.1.5-2.9,1.1-4c.6-1.1,1.4-2,2.5-2.6,1.1-.6,2.6-.9,4.4-.9s3.3.3,4.4.9c1.1.6,1.9,1.5,2.5,2.6.6,1.1,1,2.4,1.1,4,.2,1.6.3,3.3.3,5.1s0,3.6-.3,5.1ZM84.8,62.2h-3.6v-2.2h0c-.6,1-1.3,1.6-2.1,2-.8.4-1.8.6-3,.6s-2.7-.3-3.7-.8c-.9-.5-1.7-1.3-2.2-2.4-.5-1.1-.9-2.4-1.1-4-.2-1.6-.3-3.5-.3-5.6s.1-3.8.4-5.4c.3-1.5.7-2.8,1.3-3.9.6-1,1.5-1.8,2.5-2.3,1-.5,2.4-.8,3.9-.8,2.7,0,4.6.7,5.8,2,1.2,1.3,1.8,3.2,1.8,5.7h-4.7c0-.5,0-.9-.2-1.4-.1-.5-.3-.9-.5-1.3-.2-.4-.5-.7-.9-1-.4-.3-.8-.4-1.3-.4-1.2,0-2,.7-2.6,2-.5,1.3-.8,3.5-.8,6.5s0,2.8.1,4,.3,2.2.5,3,.6,1.5,1,1.9c.4.4,1,.7,1.7.7s.6,0,1-.2c.4-.2.7-.4,1-.7s.6-.7.8-1.2c.2-.5.3-1.1.3-1.7v-2.5h-3.2v-3.6h7.9v13.1Z"/>
      </g>
    </g>
  </g>
</svg>