<svg width="20" height="20" viewBox="0 0 20 20" fill="none" xmlns="http://www.w3.org/2000/svg">
<path d="M19.375 1.875H16.25V0.625C16.25 0.279375 15.97 0 15.625 0H13.75C13.405 0 13.125 0.279375 13.125 0.625V1.875H6.875V0.625C6.875 0.279375 6.595 0 6.25 0H4.375C4.03 0 3.75 0.279375 3.75 0.625V1.875H0.625C0.28 1.875 0 2.15438 0 2.5V19.375C0 19.7206 0.28 20 0.625 20H19.375C19.72 20 20 19.7206 20 19.375V2.5C20 2.15438 19.72 1.875 19.375 1.875ZM13.125 3.125H16.25V4.375H13.125V3.125ZM3.75 3.125H6.875V4.375H3.75V3.125ZM18.75 18.75H1.25V7.5H18.75V18.75Z" fill="white"/>
</svg>
