<svg width="24" height="24" viewBox="0 0 24 24" fill="none" xmlns="http://www.w3.org/2000/svg">
<path fill-rule="evenodd" clip-rule="evenodd" d="M15.7619 14.8126H16.8325L23.552 21.5456L21.5456 23.552L14.8126 16.8325V15.7687L14.4423 15.3983C12.9139 16.7113 10.9276 17.5058 8.75289 17.5058C3.9186 17.5058 0 13.5872 0 8.75289C0 3.9186 3.9186 0 8.75289 0C13.5872 0 17.5058 3.9186 17.5058 8.75289C17.5058 10.9276 16.7113 12.9139 15.3916 14.4423L15.7619 14.8126ZM2.94401 8.83201C2.94401 12.0835 5.58052 14.72 8.83201 14.72C12.0835 14.72 14.72 12.0835 14.72 8.83201C14.72 5.58052 12.0835 2.94401 8.83201 2.94401C5.58052 2.94401 2.94401 5.58052 2.94401 8.83201Z" fill="white"/>
</svg>
